<svg xmlns="http://www.w3.org/2000/svg" width="56" height="61" fill="none" viewBox="0 0 56 61">
  <path fill="#141414" d="M30.302 0c3.795 0 6.892.525 9.291 1.575 2.4 1.05 4.548 2.32 6.446 3.812.67.498 1.228.746 1.674.746 1.06 0 1.758-1.657 2.093-4.973h1.925c-.112 2.155-.195 4.78-.251 7.874-.056 3.039-.084 7.1-.084 12.183h-1.925c-.39-3.315-1.005-6.188-1.842-8.62-.781-2.486-2.26-4.613-4.436-6.381-1.34-1.27-3.014-2.265-5.023-2.984a17.1 17.1 0 0 0-5.943-1.077c-3.07 0-5.692.801-7.868 2.403C22.182 6.106 20.397 8.233 19 10.94c-1.395 2.708-2.427 5.774-3.097 9.2-.67 3.37-1.004 6.879-1.004 10.526 0 9.945 1.367 17.211 4.101 21.797 2.79 4.586 6.78 6.88 11.97 6.88 1.34 0 2.512-.166 3.516-.498 1.005-.331 1.814-.718 2.428-1.16.781-.553 1.311-1.133 1.59-1.74.28-.664.419-1.52.419-2.57v-8.122c0-2.542-.224-4.42-.67-5.636-.39-1.271-1.2-2.127-2.427-2.57-1.228-.441-3.014-.69-5.358-.745v-1.658c1.172.055 2.567.11 4.186.166 1.674 0 3.404.027 5.19.083h4.938c2.344 0 4.492-.028 6.446-.083 1.953-.056 3.543-.11 4.771-.166v1.658c-1.06.055-1.87.248-2.428.58-.502.331-.864.994-1.088 1.989-.167.994-.25 2.514-.25 4.558v16.41h-1.675c-.056-.939-.279-1.96-.67-3.066-.334-1.105-.92-1.658-1.758-1.658-.39 0-.92.111-1.59.332-.614.166-1.59.635-2.93 1.409a43.64 43.64 0 0 1-6.529 2.984c-2.288.773-4.687 1.16-7.199 1.16-6.473 0-11.942-1.188-16.406-3.564-4.465-2.376-7.84-5.774-10.129-10.194C1.116 42.766 0 37.407 0 31.163c0-6.299 1.284-11.769 3.85-16.41 2.623-4.642 6.195-8.26 10.715-10.858C19.141 1.298 24.387 0 30.302 0Z"/>
</svg>
