<svg xmlns="http://www.w3.org/2000/svg" width="149" height="39" fill="none" viewBox="0 0 149 39">
  <path fill="#141414" d="M139.164 12.512c1.344 0 2.432.176 3.264.528.864.32 1.536.768 2.016 1.344.512.608.88 1.392 1.104 2.352.256.96.384 2.256.384 3.888v12.912c0 1.344.224 2.256.672 2.736.48.48 1.28.72 2.4.72V38c-.608-.032-1.52-.064-2.736-.096a66.692 66.692 0 0 0-7.2 0c-1.152.032-2.032.064-2.64.096v-1.008c.96 0 1.632-.24 2.016-.72.384-.48.576-1.392.576-2.736V18.608c0-.8-.08-1.488-.24-2.064-.16-.608-.448-1.072-.864-1.392-.416-.352-1.04-.528-1.872-.528-.864 0-1.664.24-2.4.72-.704.48-1.28 1.152-1.728 2.016-.416.832-.624 1.776-.624 2.832v13.344c0 1.344.192 2.256.576 2.736.416.48 1.088.72 2.016.72V38c-.576-.032-1.424-.064-2.544-.096a58.096 58.096 0 0 0-3.408-.096c-1.216 0-2.464.032-3.744.096-1.28.032-2.24.064-2.88.096v-1.008c1.12 0 1.904-.24 2.352-.72.48-.48.72-1.392.72-2.736v-15.12c0-1.44-.224-2.496-.672-3.168-.416-.704-1.216-1.056-2.4-1.056v-1.008c1.024.096 2.016.144 2.976.144a45.25 45.25 0 0 0 3.744-.144 29.032 29.032 0 0 0 3.264-.528v4.32c.8-1.632 1.888-2.784 3.264-3.456 1.376-.672 2.912-1.008 4.608-1.008Zm-32.612 0c2.336 0 4.384.432 6.144 1.296 1.76.864 3.136 2.256 4.128 4.176.992 1.92 1.488 4.464 1.488 7.632 0 3.168-.496 5.712-1.488 7.632-.992 1.888-2.368 3.264-4.128 4.128-1.76.864-3.808 1.296-6.144 1.296-2.272 0-4.304-.432-6.096-1.296-1.76-.864-3.152-2.24-4.176-4.128-.992-1.92-1.488-4.464-1.488-7.632 0-3.168.496-5.712 1.488-7.632 1.024-1.92 2.416-3.312 4.176-4.176 1.792-.864 3.824-1.296 6.096-1.296Zm0 .96c-1.28 0-2.352.96-3.216 2.88-.864 1.888-1.296 4.976-1.296 9.264 0 4.288.432 7.376 1.296 9.264.864 1.888 1.936 2.832 3.216 2.832 1.312 0 2.384-.944 3.216-2.832.864-1.888 1.296-4.976 1.296-9.264 0-4.288-.432-7.376-1.296-9.264-.832-1.92-1.904-2.88-3.216-2.88Zm-25.052-.96c1.344 0 2.512.176 3.504.528 1.024.32 1.76.64 2.208.96 1.088.736 1.76.256 2.016-1.44h1.008c-.064.896-.112 2-.144 3.312-.032 1.28-.048 2.992-.048 5.136h-1.008a15.29 15.29 0 0 0-.912-3.504c-.448-1.152-1.104-2.096-1.968-2.832-.832-.736-1.92-1.104-3.264-1.104-.928 0-1.712.272-2.352.816-.64.512-.96 1.264-.96 2.256 0 .96.288 1.808.864 2.544.576.704 1.312 1.392 2.208 2.064.928.64 1.888 1.328 2.88 2.064 1.056.8 2.016 1.6 2.88 2.4.864.768 1.552 1.616 2.064 2.544.512.928.768 2.032.768 3.312 0 1.44-.416 2.704-1.248 3.792-.832 1.056-1.936 1.872-3.312 2.448-1.344.576-2.848.864-4.512.864-.96 0-1.824-.096-2.592-.288a8.914 8.914 0 0 1-1.92-.72 34.912 34.912 0 0 0-1.2-.528 9.432 9.432 0 0 0-1.008-.48c-.32-.096-.608.016-.864.336-.224.32-.4.768-.528 1.344h-1.008a94.37 94.37 0 0 0 .144-3.744c.032-1.472.048-3.424.048-5.856h1.008c.192 1.728.544 3.264 1.056 4.608.512 1.312 1.2 2.352 2.064 3.12.896.736 2.016 1.104 3.36 1.104.544 0 1.072-.112 1.584-.336.512-.224.928-.592 1.248-1.104.352-.512.528-1.168.528-1.968 0-1.408-.464-2.576-1.392-3.504-.896-.928-2.048-1.936-3.456-3.024-1.024-.832-2-1.648-2.928-2.448a12.333 12.333 0 0 1-2.208-2.688c-.576-.992-.864-2.112-.864-3.36 0-1.44.384-2.656 1.152-3.648.768-.992 1.776-1.728 3.024-2.208 1.28-.512 2.64-.768 4.08-.768ZM63.095.8c1.344 0 2.4.336 3.168 1.008.8.64 1.2 1.536 1.2 2.688 0 1.152-.4 2.064-1.2 2.736-.768.64-1.824.96-3.168.96s-2.416-.32-3.216-.96c-.768-.672-1.152-1.584-1.152-2.736 0-1.152.384-2.048 1.152-2.688C60.68 1.136 61.751.8 63.095.8Zm3.744 11.856v20.88c0 1.344.224 2.256.672 2.736.48.48 1.28.72 2.4.72V38c-.576-.032-1.472-.064-2.688-.096a70.316 70.316 0 0 0-3.696-.096c-1.248 0-2.512.032-3.792.096-1.28.032-2.24.064-2.88.096v-1.008c1.12 0 1.904-.24 2.352-.72.48-.48.72-1.392.72-2.736v-15.12c0-1.44-.224-2.496-.672-3.168-.416-.704-1.216-1.056-2.4-1.056v-1.008c1.024.096 2.016.144 2.976.144a45.25 45.25 0 0 0 3.744-.144 29.032 29.032 0 0 0 3.264-.528Zm-15.879-.144c1.025 0 1.857.224 2.497.672.64.416 1.104.96 1.392 1.632.32.672.48 1.376.48 2.112 0 1.184-.352 2.16-1.056 2.928-.672.736-1.568 1.104-2.688 1.104s-2-.272-2.64-.816c-.608-.576-.912-1.328-.912-2.256 0-.896.192-1.632.576-2.208a5.844 5.844 0 0 1 1.536-1.536 2.149 2.149 0 0 0-1.344.048c-.608.096-1.184.352-1.728.768a5.177 5.177 0 0 0-1.392 1.488 7.587 7.587 0 0 0-.912 1.92 6.204 6.204 0 0 0-.336 1.968v12.72c0 1.536.368 2.576 1.104 3.12.768.544 1.904.816 3.408.816V38a167.88 167.88 0 0 0-3.216-.096 97.373 97.373 0 0 0-4.416-.096c-1.28 0-2.576.032-3.888.096-1.312.032-2.304.064-2.976.096v-1.008c1.12 0 1.904-.24 2.352-.72.48-.48.72-1.392.72-2.736v-15.12c0-1.44-.224-2.496-.672-3.168-.416-.704-1.216-1.056-2.4-1.056v-1.008c1.024.096 2.016.144 2.976.144a45.25 45.25 0 0 0 3.744-.144 29.032 29.032 0 0 0 3.264-.528v4.464a8.771 8.771 0 0 1 1.536-2.352 6.834 6.834 0 0 1 2.208-1.632c.832-.416 1.76-.624 2.784-.624ZM17.44 3.344c2.176 0 3.952.304 5.328.912a16.876 16.876 0 0 1 3.696 2.208c.384.288.704.432.96.432.608 0 1.008-.96 1.2-2.88h1.104a140.035 140.035 0 0 0-.144 4.56c-.032 1.76-.048 4.112-.048 7.056h-1.104c-.224-1.92-.576-3.584-1.056-4.992-.448-1.44-1.296-2.672-2.544-3.696-.768-.736-1.728-1.312-2.88-1.728a9.72 9.72 0 0 0-3.408-.624c-1.76 0-3.264.464-4.512 1.392-1.248.896-2.272 2.128-3.072 3.696-.8 1.568-1.392 3.344-1.776 5.328a31.52 31.52 0 0 0-.576 6.096c0 5.76.784 9.968 2.352 12.624 1.6 2.656 3.888 3.984 6.864 3.984.768 0 1.44-.096 2.016-.288.576-.192 1.04-.416 1.392-.672.448-.32.752-.656.912-1.008.16-.384.24-.88.24-1.488v-4.704c0-1.472-.128-2.56-.384-3.264-.224-.736-.688-1.232-1.392-1.488s-1.728-.4-3.072-.432v-.96c.672.032 1.472.064 2.4.096.96 0 1.952.016 2.976.048h2.832c1.344 0 2.576-.016 3.696-.048s2.032-.064 2.736-.096v.96c-.608.032-1.072.144-1.392.336-.288.192-.496.576-.624 1.152-.096.576-.144 1.456-.144 2.64V38h-.96c-.032-.544-.16-1.136-.384-1.776-.192-.64-.528-.96-1.008-.96-.224 0-.528.064-.912.192-.352.096-.912.368-1.68.816A24.904 24.904 0 0 1 21.328 38a12.686 12.686 0 0 1-4.128.672c-3.712 0-6.848-.688-9.408-2.064-2.56-1.376-4.496-3.344-5.808-5.904-1.28-2.592-1.92-5.696-1.92-9.312 0-3.648.736-6.816 2.208-9.504C3.776 9.2 5.824 7.104 8.416 5.6c2.624-1.504 5.632-2.256 9.024-2.256Z"/>
</svg>
