<svg xmlns="http://www.w3.org/2000/svg" width="22" height="18" fill="none" viewBox="0 0 22 18">
  <path fill="url(#a)" d="M16.5.5C14.55.5 12.45.9 11 2 9.55.9 7.45.5 5.5.5c-1.45 0-2.99.22-4.28.79C.49 1.62 0 2.33 0 3.14v11.28c0 1.3 1.22 2.26 2.48 1.94.98-.25 2.02-.36 3.02-.36 1.56 0 3.22.26 4.56.92.6.3 1.28.3 1.87 0 1.34-.67 3-.92 4.56-.92 1 0 2.04.11 3.02.36 1.26.33 2.48-.63 2.48-1.94V3.14c0-.81-.49-1.52-1.22-1.85C19.49.72 17.95.5 16.5.5ZM20 13.23c0 .63-.58 1.09-1.2.98-.75-.14-1.53-.2-2.3-.2-1.7 0-4.15.65-5.5 1.5V4c1.35-.85 3.8-1.5 5.5-1.5.92 0 1.83.09 2.7.28.46.1.8.51.8.98v9.47Z"/>
  <path fill="url(#b)" d="M12.98 7.01c-.32 0-.61-.2-.71-.52-.13-.39.09-.82.48-.94 1.54-.5 3.53-.66 5.36-.45.41.05.71.42.66.83-.05.41-.42.71-.83.66-1.62-.19-3.39-.04-4.73.39-.08.01-.16.03-.23.03Z"/>
  <path fill="url(#c)" d="M12.98 9.67c-.32 0-.61-.2-.71-.52-.13-.39.09-.82.48-.94 1.53-.5 3.53-.66 5.36-.45.41.05.71.42.66.83-.05.41-.42.71-.83.66-1.62-.19-3.39-.04-4.73.39a.97.97 0 0 1-.23.03Z"/>
  <path fill="url(#d)" d="M12.98 12.33c-.32 0-.61-.2-.71-.52-.13-.39.09-.82.48-.94 1.53-.5 3.53-.66 5.36-.45.41.05.71.42.66.83-.05.41-.42.7-.83.66-1.62-.19-3.39-.04-4.73.39a.97.97 0 0 1-.23.03Z"/>
  <defs>
    <linearGradient id="a" x1="10.995" x2="10.995" y1=".5" y2="17.145" gradientUnits="userSpaceOnUse">
      <stop stop-color="#F4E65B"/>
      <stop offset="1" stop-color="#DDCC2B"/>
    </linearGradient>
    <linearGradient id="b" x1="15.504" x2="15.504" y1="5.01" y2="7.01" gradientUnits="userSpaceOnUse">
      <stop stop-color="#F4E65B"/>
      <stop offset="1" stop-color="#DDCC2B"/>
    </linearGradient>
    <linearGradient id="c" x1="15.504" x2="15.504" y1="7.67" y2="9.67" gradientUnits="userSpaceOnUse">
      <stop stop-color="#F4E65B"/>
      <stop offset="1" stop-color="#DDCC2B"/>
    </linearGradient>
    <linearGradient id="d" x1="15.504" x2="15.504" y1="10.33" y2="12.33" gradientUnits="userSpaceOnUse">
      <stop stop-color="#F4E65B"/>
      <stop offset="1" stop-color="#DDCC2B"/>
    </linearGradient>
  </defs>
</svg>
