<svg xmlns="http://www.w3.org/2000/svg" width="22" height="20" fill="none" viewBox="0 0 22 20">
  <path fill="url(#a)" d="M11.65 13.67c.14-.36.05-.77-.23-1.05l-2.09-2.06.03-.03A17.52 17.52 0 0 0 13.07 4h1.94c.54 0 .99-.45.99-.99v-.02c0-.54-.45-.99-.99-.99H9V1c0-.55-.45-1-1-1S7 .45 7 1v1H.99C.45 2 0 2.45 0 2.99c0 .55.45.99.99.99h10.18A15.66 15.66 0 0 1 8 9.35c-.81-.89-1.49-1.86-2.06-2.88A.885.885 0 0 0 5.16 6c-.69 0-1.13.75-.79 1.35.63 1.13 1.4 2.21 2.3 3.21L2.3 14.87a.99.99 0 0 0 0 1.42c.39.39 1.02.39 1.42 0L8 12l2.02 2.02c.51.51 1.38.32 1.63-.35ZM16.5 8c-.6 0-1.14.37-1.35.94l-3.67 9.8c-.24.61.22 1.26.87 1.26.39 0 .74-.24.88-.61l.89-2.39h4.75l.9 2.39c.14.36.49.61.88.61.65 0 1.11-.65.88-1.26l-3.67-9.8C17.64 8.37 17.1 8 16.5 8Zm-1.62 7 1.62-4.33L18.12 15h-3.24Z"/>
  <defs>
    <linearGradient id="a" x1="10.795" x2="10.795" y1="0" y2="20" gradientUnits="userSpaceOnUse">
      <stop stop-color="#F4E65B"/>
      <stop offset="1" stop-color="#DDCC2B"/>
    </linearGradient>
  </defs>
</svg>
